<?xml version="1.0" encoding="UTF-8" standalone="no"?>
<!DOCTYPE svg PUBLIC "-//W3C//DTD SVG 1.1//EN"
 "http://www.w3.org/Graphics/SVG/1.1/DTD/svg11.dtd">
<!-- Generated by graphviz version 2.47.0 (20210316.0004)
 -->
<!-- Title: dependencies Pages: 1 -->
<svg width="4098pt" height="284pt"
 viewBox="0.00 0.00 4098.00 284.00" xmlns="http://www.w3.org/2000/svg" xmlns:xlink="http://www.w3.org/1999/xlink">
<g id="graph0" class="graph" transform="scale(1 1) rotate(0) translate(4 280)">
<title>dependencies</title>
<polygon fill="white" stroke="transparent" points="-4,4 -4,-280 4094,-280 4094,4 -4,4"/>
<text text-anchor="start" x="2024.01" y="-42.4" font-family="Times-12" font-weight="bold" font-size="14.00">Legend</text>
<polygon fill="#ffffb3" stroke="transparent" points="1811,-10 1811,-30 1831,-30 1831,-10 1811,-10"/>
<text text-anchor="start" x="1834.63" y="-15.4" font-family="Times-12" font-size="14.00"> &#160;Declarations</text>
<polygon fill="#8dd3c7" stroke="transparent" points="1924,-10 1924,-30 1944,-30 1944,-10 1924,-10"/>
<text text-anchor="start" x="1947.73" y="-15.4" font-family="Times-12" font-size="14.00"> &#160;Module</text>
<polygon fill="#80b1d3" stroke="transparent" points="2010,-10 2010,-30 2030,-30 2030,-10 2010,-10"/>
<text text-anchor="start" x="2033.78" y="-15.4" font-family="Times-12" font-size="14.00"> &#160;Bootstrap</text>
<polygon fill="#fdb462" stroke="transparent" points="2107,-10 2107,-30 2127,-30 2127,-10 2107,-10"/>
<text text-anchor="start" x="2130.67" y="-15.4" font-family="Times-12" font-size="14.00"> &#160;Providers</text>
<polygon fill="#fb8072" stroke="transparent" points="2203,-10 2203,-30 2223,-30 2223,-10 2203,-10"/>
<text text-anchor="start" x="2226.73" y="-15.4" font-family="Times-12" font-size="14.00"> &#160;Exports</text>
<g id="clust1" class="cluster">
<title>cluster_AppModule</title>
<polygon fill="none" stroke="black" stroke-dasharray="1,5" points="8,-70 8,-268 4082,-268 4082,-70 8,-70"/>
</g>
<g id="clust2" class="cluster">
<title>cluster_AppModule_declarations</title>
<polygon fill="none" stroke="black" points="168,-78 168,-130 4074,-130 4074,-78 168,-78"/>
</g>
<g id="clust28" class="cluster">
<title>cluster_AppModule_imports</title>
<polygon fill="none" stroke="black" points="16,-78 16,-130 160,-130 160,-78 16,-78"/>
</g>
<g id="clust30" class="cluster">
<title>cluster_AppModule_bootstrap</title>
<polygon fill="none" stroke="black" points="1874,-208 1874,-260 1998,-260 1998,-208 1874,-208"/>
</g>
<!-- AppComponent -->
<g id="node1" class="node">
<title>AppComponent</title>
<polygon fill="#ffffb3" stroke="black" points="4065.94,-122 3960.06,-122 3960.06,-86 4065.94,-86 4065.94,-122"/>
<text text-anchor="middle" x="4013" y="-99.8" font-family="Times,serif" font-size="14.00">AppComponent</text>
</g>
<!-- AppModule -->
<g id="node26" class="node">
<title>AppModule</title>
<polygon fill="#8dd3c7" stroke="black" points="1977.66,-187 1974.66,-191 1953.66,-191 1950.66,-187 1894.34,-187 1894.34,-151 1977.66,-151 1977.66,-187"/>
<text text-anchor="middle" x="1936" y="-164.8" font-family="Times,serif" font-size="14.00">AppModule</text>
</g>
<!-- AppComponent&#45;&gt;AppModule -->
<g id="edge1" class="edge">
<title>AppComponent&#45;&gt;AppModule</title>
<path fill="none" stroke="black" d="M4013,-122.38C4013,-146.28 4013,-185 4013,-185 4013,-185 1987.96,-185 1987.96,-185"/>
<polygon fill="black" stroke="black" points="1987.96,-181.5 1977.96,-185 1987.96,-188.5 1987.96,-181.5"/>
</g>
<!-- BodyBuilderComponent -->
<g id="node2" class="node">
<title>BodyBuilderComponent</title>
<polygon fill="#ffffb3" stroke="black" points="3941.66,-122 3788.34,-122 3788.34,-86 3941.66,-86 3941.66,-122"/>
<text text-anchor="middle" x="3865" y="-99.8" font-family="Times,serif" font-size="14.00">BodyBuilderComponent</text>
</g>
<!-- BodyBuilderComponent&#45;&gt;AppModule -->
<g id="edge2" class="edge">
<title>BodyBuilderComponent&#45;&gt;AppModule</title>
<path fill="none" stroke="black" d="M3865,-122.09C3865,-145.13 3865,-182 3865,-182 3865,-182 1988.08,-182 1988.08,-182"/>
<polygon fill="black" stroke="black" points="1988.08,-178.5 1978.08,-182 1988.08,-185.5 1988.08,-178.5"/>
</g>
<!-- BodyElementComponent -->
<g id="node3" class="node">
<title>BodyElementComponent</title>
<polygon fill="#ffffb3" stroke="black" points="3770.32,-122 3611.68,-122 3611.68,-86 3770.32,-86 3770.32,-122"/>
<text text-anchor="middle" x="3691" y="-99.8" font-family="Times,serif" font-size="14.00">BodyElementComponent</text>
</g>
<!-- BodyElementComponent&#45;&gt;AppModule -->
<g id="edge3" class="edge">
<title>BodyElementComponent&#45;&gt;AppModule</title>
<path fill="none" stroke="black" d="M3691,-122.01C3691,-144.49 3691,-180 3691,-180 3691,-180 1988.08,-180 1988.08,-180"/>
<polygon fill="black" stroke="black" points="1988.08,-176.5 1978.08,-180 1988.08,-183.5 1988.08,-176.5"/>
</g>
<!-- CrearSitioComponent -->
<g id="node4" class="node">
<title>CrearSitioComponent</title>
<polygon fill="#ffffb3" stroke="black" points="3593.37,-122 3454.63,-122 3454.63,-86 3593.37,-86 3593.37,-122"/>
<text text-anchor="middle" x="3524" y="-99.8" font-family="Times,serif" font-size="14.00">CrearSitioComponent</text>
</g>
<!-- CrearSitioComponent&#45;&gt;AppModule -->
<g id="edge4" class="edge">
<title>CrearSitioComponent&#45;&gt;AppModule</title>
<path fill="none" stroke="black" d="M3524,-122.04C3524,-143.66 3524,-177 3524,-177 3524,-177 1987.66,-177 1987.66,-177"/>
<polygon fill="black" stroke="black" points="1987.66,-173.5 1977.66,-177 1987.66,-180.5 1987.66,-173.5"/>
</g>
<!-- FooterLienzoComponent -->
<g id="node5" class="node">
<title>FooterLienzoComponent</title>
<polygon fill="#ffffb3" stroke="black" points="3436.25,-122 3279.75,-122 3279.75,-86 3436.25,-86 3436.25,-122"/>
<text text-anchor="middle" x="3358" y="-99.8" font-family="Times,serif" font-size="14.00">FooterLienzoComponent</text>
</g>
<!-- FooterLienzoComponent&#45;&gt;AppModule -->
<g id="edge5" class="edge">
<title>FooterLienzoComponent&#45;&gt;AppModule</title>
<path fill="none" stroke="black" d="M3358,-122.28C3358,-143.32 3358,-175 3358,-175 3358,-175 1987.79,-175 1987.79,-175"/>
<polygon fill="black" stroke="black" points="1987.79,-171.5 1977.79,-175 1987.79,-178.5 1987.79,-171.5"/>
</g>
<!-- HeaderComponent -->
<g id="node6" class="node">
<title>HeaderComponent</title>
<polygon fill="#ffffb3" stroke="black" points="3261.74,-122 3140.26,-122 3140.26,-86 3261.74,-86 3261.74,-122"/>
<text text-anchor="middle" x="3201" y="-99.8" font-family="Times,serif" font-size="14.00">HeaderComponent</text>
</g>
<!-- HeaderComponent&#45;&gt;AppModule -->
<g id="edge6" class="edge">
<title>HeaderComponent&#45;&gt;AppModule</title>
<path fill="none" stroke="black" d="M3201,-122.22C3201,-142.37 3201,-172 3201,-172 3201,-172 1987.73,-172 1987.73,-172"/>
<polygon fill="black" stroke="black" points="1987.73,-168.5 1977.73,-172 1987.73,-175.5 1987.73,-168.5"/>
</g>
<!-- ImageComponent -->
<g id="node7" class="node">
<title>ImageComponent</title>
<polygon fill="#ffffb3" stroke="black" points="3122.31,-122 3005.69,-122 3005.69,-86 3122.31,-86 3122.31,-122"/>
<text text-anchor="middle" x="3064" y="-99.8" font-family="Times,serif" font-size="14.00">ImageComponent</text>
</g>
<!-- ImageComponent&#45;&gt;AppModule -->
<g id="edge7" class="edge">
<title>ImageComponent&#45;&gt;AppModule</title>
<path fill="none" stroke="black" d="M3064,-122.11C3064,-141.34 3064,-169 3064,-169 3064,-169 1987.82,-169 1987.82,-169"/>
<polygon fill="black" stroke="black" points="1987.82,-165.5 1977.82,-169 1987.82,-172.5 1987.82,-165.5"/>
</g>
<!-- ImagenLienzoComponent -->
<g id="node8" class="node">
<title>ImagenLienzoComponent</title>
<polygon fill="#ffffb3" stroke="black" points="2988.19,-122 2825.81,-122 2825.81,-86 2988.19,-86 2988.19,-122"/>
<text text-anchor="middle" x="2907" y="-99.8" font-family="Times,serif" font-size="14.00">ImagenLienzoComponent</text>
</g>
<!-- ImagenLienzoComponent&#45;&gt;AppModule -->
<g id="edge8" class="edge">
<title>ImagenLienzoComponent&#45;&gt;AppModule</title>
<path fill="none" stroke="black" d="M2907,-122.22C2907,-140.83 2907,-167 2907,-167 2907,-167 1987.72,-167 1987.72,-167"/>
<polygon fill="black" stroke="black" points="1987.72,-163.5 1977.72,-167 1987.72,-170.5 1987.72,-163.5"/>
</g>
<!-- LienzoPaginaComponent -->
<g id="node9" class="node">
<title>LienzoPaginaComponent</title>
<polygon fill="#ffffb3" stroke="black" points="2808.31,-122 2649.69,-122 2649.69,-86 2808.31,-86 2808.31,-122"/>
<text text-anchor="middle" x="2729" y="-99.8" font-family="Times,serif" font-size="14.00">LienzoPaginaComponent</text>
</g>
<!-- LienzoPaginaComponent&#45;&gt;AppModule -->
<g id="edge9" class="edge">
<title>LienzoPaginaComponent&#45;&gt;AppModule</title>
<path fill="none" stroke="black" d="M2729,-122C2729,-139.68 2729,-164 2729,-164 2729,-164 1987.8,-164 1987.8,-164"/>
<polygon fill="black" stroke="black" points="1987.8,-160.5 1977.8,-164 1987.8,-167.5 1987.8,-160.5"/>
</g>
<!-- LoginComponent -->
<g id="node10" class="node">
<title>LoginComponent</title>
<polygon fill="#ffffb3" stroke="black" points="2631.28,-122 2516.72,-122 2516.72,-86 2631.28,-86 2631.28,-122"/>
<text text-anchor="middle" x="2574" y="-99.8" font-family="Times,serif" font-size="14.00">LoginComponent</text>
</g>
<!-- LoginComponent&#45;&gt;AppModule -->
<g id="edge10" class="edge">
<title>LoginComponent&#45;&gt;AppModule</title>
<path fill="none" stroke="black" d="M2574,-122.03C2574,-139.06 2574,-162 2574,-162 2574,-162 1987.86,-162 1987.86,-162"/>
<polygon fill="black" stroke="black" points="1987.86,-158.5 1977.86,-162 1987.86,-165.5 1987.86,-158.5"/>
</g>
<!-- MainLayoutComponent -->
<g id="node11" class="node">
<title>MainLayoutComponent</title>
<polygon fill="#ffffb3" stroke="black" points="2498.04,-122 2347.96,-122 2347.96,-86 2498.04,-86 2498.04,-122"/>
<text text-anchor="middle" x="2423" y="-99.8" font-family="Times,serif" font-size="14.00">MainLayoutComponent</text>
</g>
<!-- MainLayoutComponent&#45;&gt;AppModule -->
<g id="edge11" class="edge">
<title>MainLayoutComponent&#45;&gt;AppModule</title>
<path fill="none" stroke="black" d="M2423,-122.01C2423,-138.05 2423,-159 2423,-159 2423,-159 1987.94,-159 1987.94,-159"/>
<polygon fill="black" stroke="black" points="1987.94,-155.5 1977.94,-159 1987.94,-162.5 1987.94,-155.5"/>
</g>
<!-- MenuOptionComponent -->
<g id="node12" class="node">
<title>MenuOptionComponent</title>
<polygon fill="#ffffb3" stroke="black" points="2329.38,-122 2176.62,-122 2176.62,-86 2329.38,-86 2329.38,-122"/>
<text text-anchor="middle" x="2253" y="-99.8" font-family="Times,serif" font-size="14.00">MenuOptionComponent</text>
</g>
<!-- MenuOptionComponent&#45;&gt;AppModule -->
<g id="edge12" class="edge">
<title>MenuOptionComponent&#45;&gt;AppModule</title>
<path fill="none" stroke="black" d="M2253,-122.24C2253,-137.57 2253,-157 2253,-157 2253,-157 1987.77,-157 1987.77,-157"/>
<polygon fill="black" stroke="black" points="1987.77,-153.5 1977.77,-157 1987.77,-160.5 1987.77,-153.5"/>
</g>
<!-- MiCuentaComponent -->
<g id="node13" class="node">
<title>MiCuentaComponent</title>
<polygon fill="#ffffb3" stroke="black" points="2158.82,-122 2021.18,-122 2021.18,-86 2158.82,-86 2158.82,-122"/>
<text text-anchor="middle" x="2090" y="-99.8" font-family="Times,serif" font-size="14.00">MiCuentaComponent</text>
</g>
<!-- MiCuentaComponent&#45;&gt;AppModule -->
<g id="edge13" class="edge">
<title>MiCuentaComponent&#45;&gt;AppModule</title>
<path fill="none" stroke="black" d="M2090,-122.05C2090,-136.37 2090,-154 2090,-154 2090,-154 1987.67,-154 1987.67,-154"/>
<polygon fill="black" stroke="black" points="1987.67,-150.5 1977.67,-154 1987.67,-157.5 1987.67,-150.5"/>
</g>
<!-- MisSitiosComponent -->
<g id="node14" class="node">
<title>MisSitiosComponent</title>
<polygon fill="#ffffb3" stroke="black" points="2003.51,-122 1868.49,-122 1868.49,-86 2003.51,-86 2003.51,-122"/>
<text text-anchor="middle" x="1936" y="-99.8" font-family="Times,serif" font-size="14.00">MisSitiosComponent</text>
</g>
<!-- MisSitiosComponent&#45;&gt;AppModule -->
<g id="edge14" class="edge">
<title>MisSitiosComponent&#45;&gt;AppModule</title>
<path fill="none" stroke="black" d="M1936,-122.11C1936,-122.11 1936,-140.99 1936,-140.99"/>
<polygon fill="black" stroke="black" points="1932.5,-140.99 1936,-150.99 1939.5,-140.99 1932.5,-140.99"/>
</g>
<!-- RankingComponent -->
<g id="node15" class="node">
<title>RankingComponent</title>
<polygon fill="#ffffb3" stroke="black" points="1850.27,-122 1721.73,-122 1721.73,-86 1850.27,-86 1850.27,-122"/>
<text text-anchor="middle" x="1786" y="-99.8" font-family="Times,serif" font-size="14.00">RankingComponent</text>
</g>
<!-- RankingComponent&#45;&gt;AppModule -->
<g id="edge15" class="edge">
<title>RankingComponent&#45;&gt;AppModule</title>
<path fill="none" stroke="black" d="M1786,-122.05C1786,-136.37 1786,-154 1786,-154 1786,-154 1884.22,-154 1884.22,-154"/>
<polygon fill="black" stroke="black" points="1884.22,-157.5 1894.22,-154 1884.22,-150.5 1884.22,-157.5"/>
</g>
<!-- RegisterComponent -->
<g id="node16" class="node">
<title>RegisterComponent</title>
<polygon fill="#ffffb3" stroke="black" points="1703.98,-122 1576.02,-122 1576.02,-86 1703.98,-86 1703.98,-122"/>
<text text-anchor="middle" x="1640" y="-99.8" font-family="Times,serif" font-size="14.00">RegisterComponent</text>
</g>
<!-- RegisterComponent&#45;&gt;AppModule -->
<g id="edge16" class="edge">
<title>RegisterComponent&#45;&gt;AppModule</title>
<path fill="none" stroke="black" d="M1640,-122.24C1640,-137.57 1640,-157 1640,-157 1640,-157 1884.22,-157 1884.22,-157"/>
<polygon fill="black" stroke="black" points="1884.22,-160.5 1894.22,-157 1884.22,-153.5 1884.22,-160.5"/>
</g>
<!-- SidebarComponent -->
<g id="node17" class="node">
<title>SidebarComponent</title>
<polygon fill="#ffffb3" stroke="black" points="1558.1,-122 1433.9,-122 1433.9,-86 1558.1,-86 1558.1,-122"/>
<text text-anchor="middle" x="1496" y="-99.8" font-family="Times,serif" font-size="14.00">SidebarComponent</text>
</g>
<!-- SidebarComponent&#45;&gt;AppModule -->
<g id="edge17" class="edge">
<title>SidebarComponent&#45;&gt;AppModule</title>
<path fill="none" stroke="black" d="M1496,-122.01C1496,-138.05 1496,-159 1496,-159 1496,-159 1884.21,-159 1884.21,-159"/>
<polygon fill="black" stroke="black" points="1884.21,-162.5 1894.21,-159 1884.21,-155.5 1884.21,-162.5"/>
</g>
<!-- SitiosComponent -->
<g id="node18" class="node">
<title>SitiosComponent</title>
<polygon fill="#ffffb3" stroke="black" points="1415.73,-122 1302.27,-122 1302.27,-86 1415.73,-86 1415.73,-122"/>
<text text-anchor="middle" x="1359" y="-99.8" font-family="Times,serif" font-size="14.00">SitiosComponent</text>
</g>
<!-- SitiosComponent&#45;&gt;AppModule -->
<g id="edge18" class="edge">
<title>SitiosComponent&#45;&gt;AppModule</title>
<path fill="none" stroke="black" d="M1359,-122.03C1359,-139.06 1359,-162 1359,-162 1359,-162 1884.04,-162 1884.04,-162"/>
<polygon fill="black" stroke="black" points="1884.04,-165.5 1894.04,-162 1884.04,-158.5 1884.04,-165.5"/>
</g>
<!-- SuperAdminSitiosComponent -->
<g id="node19" class="node">
<title>SuperAdminSitiosComponent</title>
<polygon fill="#ffffb3" stroke="black" points="1284.28,-122 1099.72,-122 1099.72,-86 1284.28,-86 1284.28,-122"/>
<text text-anchor="middle" x="1192" y="-99.8" font-family="Times,serif" font-size="14.00">SuperAdminSitiosComponent</text>
</g>
<!-- SuperAdminSitiosComponent&#45;&gt;AppModule -->
<g id="edge19" class="edge">
<title>SuperAdminSitiosComponent&#45;&gt;AppModule</title>
<path fill="none" stroke="black" d="M1161.2,-122.22C1161.2,-140.83 1161.2,-167 1161.2,-167 1161.2,-167 1884.07,-167 1884.07,-167"/>
<polygon fill="black" stroke="black" points="1884.07,-170.5 1894.07,-167 1884.07,-163.5 1884.07,-170.5"/>
</g>
<!-- SuperAdminSitiosComponent&#45;&gt;AppModule -->
<g id="edge20" class="edge">
<title>SuperAdminSitiosComponent&#45;&gt;AppModule</title>
<path fill="none" stroke="black" d="M1222.8,-122C1222.8,-139.68 1222.8,-164 1222.8,-164 1222.8,-164 1884.31,-164 1884.31,-164"/>
<polygon fill="black" stroke="black" points="1884.31,-167.5 1894.31,-164 1884.31,-160.5 1884.31,-167.5"/>
</g>
<!-- TextComponent -->
<g id="node20" class="node">
<title>TextComponent</title>
<polygon fill="#ffffb3" stroke="black" points="1081.49,-122 974.51,-122 974.51,-86 1081.49,-86 1081.49,-122"/>
<text text-anchor="middle" x="1028" y="-99.8" font-family="Times,serif" font-size="14.00">TextComponent</text>
</g>
<!-- TextComponent&#45;&gt;AppModule -->
<g id="edge21" class="edge">
<title>TextComponent&#45;&gt;AppModule</title>
<path fill="none" stroke="black" d="M1028,-122.11C1028,-141.34 1028,-169 1028,-169 1028,-169 1884.33,-169 1884.33,-169"/>
<polygon fill="black" stroke="black" points="1884.33,-172.5 1894.33,-169 1884.33,-165.5 1884.33,-172.5"/>
</g>
<!-- TextoLienzoComponent -->
<g id="node21" class="node">
<title>TextoLienzoComponent</title>
<polygon fill="#ffffb3" stroke="black" points="956.36,-122 803.64,-122 803.64,-86 956.36,-86 956.36,-122"/>
<text text-anchor="middle" x="880" y="-99.8" font-family="Times,serif" font-size="14.00">TextoLienzoComponent</text>
</g>
<!-- TextoLienzoComponent&#45;&gt;AppModule -->
<g id="edge22" class="edge">
<title>TextoLienzoComponent&#45;&gt;AppModule</title>
<path fill="none" stroke="black" d="M880,-122.22C880,-142.37 880,-172 880,-172 880,-172 1884.28,-172 1884.28,-172"/>
<polygon fill="black" stroke="black" points="1884.28,-175.5 1894.28,-172 1884.28,-168.5 1884.28,-175.5"/>
</g>
<!-- TimelineComponent -->
<g id="node22" class="node">
<title>TimelineComponent</title>
<polygon fill="#ffffb3" stroke="black" points="785.88,-122 654.12,-122 654.12,-86 785.88,-86 785.88,-122"/>
<text text-anchor="middle" x="720" y="-99.8" font-family="Times,serif" font-size="14.00">TimelineComponent</text>
</g>
<!-- TimelineComponent&#45;&gt;AppModule -->
<g id="edge23" class="edge">
<title>TimelineComponent&#45;&gt;AppModule</title>
<path fill="none" stroke="black" d="M720,-122.28C720,-143.32 720,-175 720,-175 720,-175 1884.14,-175 1884.14,-175"/>
<polygon fill="black" stroke="black" points="1884.14,-178.5 1894.14,-175 1884.14,-171.5 1884.14,-178.5"/>
</g>
<!-- TituloLienzoComponent -->
<g id="node23" class="node">
<title>TituloLienzoComponent</title>
<polygon fill="#ffffb3" stroke="black" points="636.43,-122 481.57,-122 481.57,-86 636.43,-86 636.43,-122"/>
<text text-anchor="middle" x="559" y="-99.8" font-family="Times,serif" font-size="14.00">TituloLienzoComponent</text>
</g>
<!-- TituloLienzoComponent&#45;&gt;AppModule -->
<g id="edge24" class="edge">
<title>TituloLienzoComponent&#45;&gt;AppModule</title>
<path fill="none" stroke="black" d="M559,-122.04C559,-143.66 559,-177 559,-177 559,-177 1884.04,-177 1884.04,-177"/>
<polygon fill="black" stroke="black" points="1884.04,-180.5 1894.04,-177 1884.04,-173.5 1884.04,-180.5"/>
</g>
<!-- VideoComponent -->
<g id="node24" class="node">
<title>VideoComponent</title>
<polygon fill="#ffffb3" stroke="black" points="463.55,-122 348.45,-122 348.45,-86 463.55,-86 463.55,-122"/>
<text text-anchor="middle" x="406" y="-99.8" font-family="Times,serif" font-size="14.00">VideoComponent</text>
</g>
<!-- VideoComponent&#45;&gt;AppModule -->
<g id="edge25" class="edge">
<title>VideoComponent&#45;&gt;AppModule</title>
<path fill="none" stroke="black" d="M406,-122.01C406,-144.49 406,-180 406,-180 406,-180 1884.28,-180 1884.28,-180"/>
<polygon fill="black" stroke="black" points="1884.28,-183.5 1894.28,-180 1884.28,-176.5 1884.28,-183.5"/>
</g>
<!-- VideoLienzoComponent -->
<g id="node25" class="node">
<title>VideoLienzoComponent</title>
<polygon fill="#ffffb3" stroke="black" points="330.42,-122 175.58,-122 175.58,-86 330.42,-86 330.42,-122"/>
<text text-anchor="middle" x="253" y="-99.8" font-family="Times,serif" font-size="14.00">VideoLienzoComponent</text>
</g>
<!-- VideoLienzoComponent&#45;&gt;AppModule -->
<g id="edge26" class="edge">
<title>VideoLienzoComponent&#45;&gt;AppModule</title>
<path fill="none" stroke="black" d="M253,-122.09C253,-145.13 253,-182 253,-182 253,-182 1883.98,-182 1883.98,-182"/>
<polygon fill="black" stroke="black" points="1883.98,-185.5 1893.98,-182 1883.98,-178.5 1883.98,-185.5"/>
</g>
<!-- AppComponent  -->
<g id="node28" class="node">
<title>AppComponent </title>
<polygon fill="#80b1d3" stroke="black" points="1990.44,-252 1881.56,-252 1881.56,-216 1990.44,-216 1990.44,-252"/>
<text text-anchor="middle" x="1936" y="-229.8" font-family="Times,serif" font-size="14.00">AppComponent </text>
</g>
<!-- AppModule&#45;&gt;AppComponent  -->
<g id="edge28" class="edge">
<title>AppModule&#45;&gt;AppComponent </title>
<path fill="none" stroke="black" stroke-dasharray="1,5" d="M1936,-187.11C1936,-187.11 1936,-205.99 1936,-205.99"/>
<polygon fill="black" stroke="black" points="1932.5,-205.99 1936,-215.99 1939.5,-205.99 1932.5,-205.99"/>
</g>
<!-- AppRoutingModule -->
<g id="node27" class="node">
<title>AppRoutingModule</title>
<polygon fill="#8dd3c7" stroke="black" points="152.27,-122 149.27,-126 128.27,-126 125.27,-122 23.73,-122 23.73,-86 152.27,-86 152.27,-122"/>
<text text-anchor="middle" x="88" y="-99.8" font-family="Times,serif" font-size="14.00">AppRoutingModule</text>
</g>
<!-- AppRoutingModule&#45;&gt;AppModule -->
<g id="edge27" class="edge">
<title>AppRoutingModule&#45;&gt;AppModule</title>
<path fill="none" stroke="black" d="M88,-122.38C88,-146.28 88,-185 88,-185 88,-185 1883.93,-185 1883.93,-185"/>
<polygon fill="black" stroke="black" points="1883.93,-188.5 1893.93,-185 1883.93,-181.5 1883.93,-188.5"/>
</g>
</g>
</svg>
