<?xml version="1.0" encoding="UTF-8" standalone="no"?>
<!DOCTYPE svg PUBLIC "-//W3C//DTD SVG 1.1//EN"
 "http://www.w3.org/Graphics/SVG/1.1/DTD/svg11.dtd">
<!-- Generated by graphviz version 2.47.0 (20210316.0004)
 -->
<!-- Title: dependencies Pages: 1 -->
<svg width="4098pt" height="284pt"
 viewBox="0.00 0.00 4098.00 284.00" xmlns="http://www.w3.org/2000/svg" xmlns:xlink="http://www.w3.org/1999/xlink">
<g id="graph0" class="graph" transform="scale(1 1) rotate(0) translate(4 280)">
<title>dependencies</title>
<polygon fill="white" stroke="transparent" points="-4,4 -4,-280 4094,-280 4094,4 -4,4"/>
<text text-anchor="start" x="2024.01" y="-42.4" font-family="Times-12" font-weight="bold" font-size="14.00">Legend</text>
<polygon fill="#ffffb3" stroke="transparent" points="1811,-10 1811,-30 1831,-30 1831,-10 1811,-10"/>
<text text-anchor="start" x="1834.63" y="-15.4" font-family="Times-12" font-size="14.00"> &#160;Declarations</text>
<polygon fill="#8dd3c7" stroke="transparent" points="1924,-10 1924,-30 1944,-30 1944,-10 1924,-10"/>
<text text-anchor="start" x="1947.73" y="-15.4" font-family="Times-12" font-size="14.00"> &#160;Module</text>
<polygon fill="#80b1d3" stroke="transparent" points="2010,-10 2010,-30 2030,-30 2030,-10 2010,-10"/>
<text text-anchor="start" x="2033.78" y="-15.4" font-family="Times-12" font-size="14.00"> &#160;Bootstrap</text>
<polygon fill="#fdb462" stroke="transparent" points="2107,-10 2107,-30 2127,-30 2127,-10 2107,-10"/>
<text text-anchor="start" x="2130.67" y="-15.4" font-family="Times-12" font-size="14.00"> &#160;Providers</text>
<polygon fill="#fb8072" stroke="transparent" points="2203,-10 2203,-30 2223,-30 2223,-10 2203,-10"/>
<text text-anchor="start" x="2226.73" y="-15.4" font-family="Times-12" font-size="14.00"> &#160;Exports</text>
<g id="clust1" class="cluster">
<title>cluster_AppModule</title>
<polygon fill="none" stroke="black" stroke-dasharray="1,5" points="8,-70 8,-268 4082,-268 4082,-70 8,-70"/>
</g>
<g id="clust28" class="cluster">
<title>cluster_AppModule_imports</title>
<polygon fill="none" stroke="black" points="3930,-78 3930,-130 4074,-130 4074,-78 3930,-78"/>
</g>
<g id="clust30" class="cluster">
<title>cluster_AppModule_bootstrap</title>
<polygon fill="none" stroke="black" points="1876,-208 1876,-260 2000,-260 2000,-208 1876,-208"/>
</g>
<g id="clust2" class="cluster">
<title>cluster_AppModule_declarations</title>
<polygon fill="none" stroke="black" points="16,-78 16,-130 3922,-130 3922,-78 16,-78"/>
</g>
<!-- AppComponent -->
<g id="node1" class="node">
<title>AppComponent</title>
<polygon fill="#ffffb3" stroke="black" points="3913.94,-122 3808.06,-122 3808.06,-86 3913.94,-86 3913.94,-122"/>
<text text-anchor="middle" x="3861" y="-99.8" font-family="Times,serif" font-size="14.00">AppComponent</text>
</g>
<!-- AppModule -->
<g id="node26" class="node">
<title>AppModule</title>
<polygon fill="#8dd3c7" stroke="black" points="1979.66,-187 1976.66,-191 1955.66,-191 1952.66,-187 1896.34,-187 1896.34,-151 1979.66,-151 1979.66,-187"/>
<text text-anchor="middle" x="1938" y="-164.8" font-family="Times,serif" font-size="14.00">AppModule</text>
</g>
<!-- AppComponent&#45;&gt;AppModule -->
<g id="edge1" class="edge">
<title>AppComponent&#45;&gt;AppModule</title>
<path fill="none" stroke="black" d="M3861,-122.09C3861,-145.13 3861,-182 3861,-182 3861,-182 1989.95,-182 1989.95,-182"/>
<polygon fill="black" stroke="black" points="1989.95,-178.5 1979.95,-182 1989.95,-185.5 1989.95,-178.5"/>
</g>
<!-- BodyBuilderComponent -->
<g id="node2" class="node">
<title>BodyBuilderComponent</title>
<polygon fill="#ffffb3" stroke="black" points="3789.66,-122 3636.34,-122 3636.34,-86 3789.66,-86 3789.66,-122"/>
<text text-anchor="middle" x="3713" y="-99.8" font-family="Times,serif" font-size="14.00">BodyBuilderComponent</text>
</g>
<!-- BodyBuilderComponent&#45;&gt;AppModule -->
<g id="edge2" class="edge">
<title>BodyBuilderComponent&#45;&gt;AppModule</title>
<path fill="none" stroke="black" d="M3713,-122.01C3713,-144.49 3713,-180 3713,-180 3713,-180 1989.69,-180 1989.69,-180"/>
<polygon fill="black" stroke="black" points="1989.69,-176.5 1979.69,-180 1989.69,-183.5 1989.69,-176.5"/>
</g>
<!-- BodyElementComponent -->
<g id="node3" class="node">
<title>BodyElementComponent</title>
<polygon fill="#ffffb3" stroke="black" points="3618.32,-122 3459.68,-122 3459.68,-86 3618.32,-86 3618.32,-122"/>
<text text-anchor="middle" x="3539" y="-99.8" font-family="Times,serif" font-size="14.00">BodyElementComponent</text>
</g>
<!-- BodyElementComponent&#45;&gt;AppModule -->
<g id="edge3" class="edge">
<title>BodyElementComponent&#45;&gt;AppModule</title>
<path fill="none" stroke="black" d="M3539,-122.04C3539,-143.66 3539,-177 3539,-177 3539,-177 1990,-177 1990,-177"/>
<polygon fill="black" stroke="black" points="1990,-173.5 1980,-177 1990,-180.5 1990,-173.5"/>
</g>
<!-- CrearSitioComponent -->
<g id="node4" class="node">
<title>CrearSitioComponent</title>
<polygon fill="#ffffb3" stroke="black" points="3441.37,-122 3302.63,-122 3302.63,-86 3441.37,-86 3441.37,-122"/>
<text text-anchor="middle" x="3372" y="-99.8" font-family="Times,serif" font-size="14.00">CrearSitioComponent</text>
</g>
<!-- CrearSitioComponent&#45;&gt;AppModule -->
<g id="edge4" class="edge">
<title>CrearSitioComponent&#45;&gt;AppModule</title>
<path fill="none" stroke="black" d="M3372,-122.28C3372,-143.32 3372,-175 3372,-175 3372,-175 1989.75,-175 1989.75,-175"/>
<polygon fill="black" stroke="black" points="1989.75,-171.5 1979.75,-175 1989.75,-178.5 1989.75,-171.5"/>
</g>
<!-- FooterLienzoComponent -->
<g id="node5" class="node">
<title>FooterLienzoComponent</title>
<polygon fill="#ffffb3" stroke="black" points="3284.25,-122 3127.75,-122 3127.75,-86 3284.25,-86 3284.25,-122"/>
<text text-anchor="middle" x="3206" y="-99.8" font-family="Times,serif" font-size="14.00">FooterLienzoComponent</text>
</g>
<!-- FooterLienzoComponent&#45;&gt;AppModule -->
<g id="edge5" class="edge">
<title>FooterLienzoComponent&#45;&gt;AppModule</title>
<path fill="none" stroke="black" d="M3206,-122.22C3206,-142.37 3206,-172 3206,-172 3206,-172 1989.83,-172 1989.83,-172"/>
<polygon fill="black" stroke="black" points="1989.83,-168.5 1979.83,-172 1989.83,-175.5 1989.83,-168.5"/>
</g>
<!-- HeaderComponent -->
<g id="node6" class="node">
<title>HeaderComponent</title>
<polygon fill="#ffffb3" stroke="black" points="3109.74,-122 2988.26,-122 2988.26,-86 3109.74,-86 3109.74,-122"/>
<text text-anchor="middle" x="3049" y="-99.8" font-family="Times,serif" font-size="14.00">HeaderComponent</text>
</g>
<!-- HeaderComponent&#45;&gt;AppModule -->
<g id="edge6" class="edge">
<title>HeaderComponent&#45;&gt;AppModule</title>
<path fill="none" stroke="black" d="M3049,-122.11C3049,-141.34 3049,-169 3049,-169 3049,-169 1989.86,-169 1989.86,-169"/>
<polygon fill="black" stroke="black" points="1989.86,-165.5 1979.86,-169 1989.86,-172.5 1989.86,-165.5"/>
</g>
<!-- ImageComponent -->
<g id="node7" class="node">
<title>ImageComponent</title>
<polygon fill="#ffffb3" stroke="black" points="2970.31,-122 2853.69,-122 2853.69,-86 2970.31,-86 2970.31,-122"/>
<text text-anchor="middle" x="2912" y="-99.8" font-family="Times,serif" font-size="14.00">ImageComponent</text>
</g>
<!-- ImageComponent&#45;&gt;AppModule -->
<g id="edge7" class="edge">
<title>ImageComponent&#45;&gt;AppModule</title>
<path fill="none" stroke="black" d="M2912,-122.22C2912,-140.83 2912,-167 2912,-167 2912,-167 1989.85,-167 1989.85,-167"/>
<polygon fill="black" stroke="black" points="1989.85,-163.5 1979.85,-167 1989.85,-170.5 1989.85,-163.5"/>
</g>
<!-- ImagenLienzoComponent -->
<g id="node8" class="node">
<title>ImagenLienzoComponent</title>
<polygon fill="#ffffb3" stroke="black" points="2836.19,-122 2673.81,-122 2673.81,-86 2836.19,-86 2836.19,-122"/>
<text text-anchor="middle" x="2755" y="-99.8" font-family="Times,serif" font-size="14.00">ImagenLienzoComponent</text>
</g>
<!-- ImagenLienzoComponent&#45;&gt;AppModule -->
<g id="edge8" class="edge">
<title>ImagenLienzoComponent&#45;&gt;AppModule</title>
<path fill="none" stroke="black" d="M2755,-122C2755,-139.68 2755,-164 2755,-164 2755,-164 1989.92,-164 1989.92,-164"/>
<polygon fill="black" stroke="black" points="1989.92,-160.5 1979.92,-164 1989.92,-167.5 1989.92,-160.5"/>
</g>
<!-- LienzoPaginaComponent -->
<g id="node9" class="node">
<title>LienzoPaginaComponent</title>
<polygon fill="#ffffb3" stroke="black" points="2656.31,-122 2497.69,-122 2497.69,-86 2656.31,-86 2656.31,-122"/>
<text text-anchor="middle" x="2577" y="-99.8" font-family="Times,serif" font-size="14.00">LienzoPaginaComponent</text>
</g>
<!-- LienzoPaginaComponent&#45;&gt;AppModule -->
<g id="edge9" class="edge">
<title>LienzoPaginaComponent&#45;&gt;AppModule</title>
<path fill="none" stroke="black" d="M2577,-122.03C2577,-139.06 2577,-162 2577,-162 2577,-162 1989.93,-162 1989.93,-162"/>
<polygon fill="black" stroke="black" points="1989.93,-158.5 1979.93,-162 1989.93,-165.5 1989.93,-158.5"/>
</g>
<!-- LoginComponent -->
<g id="node10" class="node">
<title>LoginComponent</title>
<polygon fill="#ffffb3" stroke="black" points="2479.28,-122 2364.72,-122 2364.72,-86 2479.28,-86 2479.28,-122"/>
<text text-anchor="middle" x="2422" y="-99.8" font-family="Times,serif" font-size="14.00">LoginComponent</text>
</g>
<!-- LoginComponent&#45;&gt;AppModule -->
<g id="edge10" class="edge">
<title>LoginComponent&#45;&gt;AppModule</title>
<path fill="none" stroke="black" d="M2422,-122.01C2422,-138.05 2422,-159 2422,-159 2422,-159 1989.68,-159 1989.68,-159"/>
<polygon fill="black" stroke="black" points="1989.68,-155.5 1979.68,-159 1989.68,-162.5 1989.68,-155.5"/>
</g>
<!-- MainLayoutComponent -->
<g id="node11" class="node">
<title>MainLayoutComponent</title>
<polygon fill="#ffffb3" stroke="black" points="2346.04,-122 2195.96,-122 2195.96,-86 2346.04,-86 2346.04,-122"/>
<text text-anchor="middle" x="2271" y="-99.8" font-family="Times,serif" font-size="14.00">MainLayoutComponent</text>
</g>
<!-- MainLayoutComponent&#45;&gt;AppModule -->
<g id="edge11" class="edge">
<title>MainLayoutComponent&#45;&gt;AppModule</title>
<path fill="none" stroke="black" d="M2271,-122.24C2271,-137.57 2271,-157 2271,-157 2271,-157 1989.84,-157 1989.84,-157"/>
<polygon fill="black" stroke="black" points="1989.84,-153.5 1979.84,-157 1989.84,-160.5 1989.84,-153.5"/>
</g>
<!-- MenuOptionComponent -->
<g id="node12" class="node">
<title>MenuOptionComponent</title>
<polygon fill="#ffffb3" stroke="black" points="2177.38,-122 2024.62,-122 2024.62,-86 2177.38,-86 2177.38,-122"/>
<text text-anchor="middle" x="2101" y="-99.8" font-family="Times,serif" font-size="14.00">MenuOptionComponent</text>
</g>
<!-- MenuOptionComponent&#45;&gt;AppModule -->
<g id="edge12" class="edge">
<title>MenuOptionComponent&#45;&gt;AppModule</title>
<path fill="none" stroke="black" d="M2101,-122.05C2101,-136.37 2101,-154 2101,-154 2101,-154 1989.98,-154 1989.98,-154"/>
<polygon fill="black" stroke="black" points="1989.98,-150.5 1979.98,-154 1989.98,-157.5 1989.98,-150.5"/>
</g>
<!-- MiCuentaComponent -->
<g id="node13" class="node">
<title>MiCuentaComponent</title>
<polygon fill="#ffffb3" stroke="black" points="2006.82,-122 1869.18,-122 1869.18,-86 2006.82,-86 2006.82,-122"/>
<text text-anchor="middle" x="1938" y="-99.8" font-family="Times,serif" font-size="14.00">MiCuentaComponent</text>
</g>
<!-- MiCuentaComponent&#45;&gt;AppModule -->
<g id="edge13" class="edge">
<title>MiCuentaComponent&#45;&gt;AppModule</title>
<path fill="none" stroke="black" d="M1938,-122.11C1938,-122.11 1938,-140.99 1938,-140.99"/>
<polygon fill="black" stroke="black" points="1934.5,-140.99 1938,-150.99 1941.5,-140.99 1934.5,-140.99"/>
</g>
<!-- MisSitiosComponent -->
<g id="node14" class="node">
<title>MisSitiosComponent</title>
<polygon fill="#ffffb3" stroke="black" points="1851.51,-122 1716.49,-122 1716.49,-86 1851.51,-86 1851.51,-122"/>
<text text-anchor="middle" x="1784" y="-99.8" font-family="Times,serif" font-size="14.00">MisSitiosComponent</text>
</g>
<!-- MisSitiosComponent&#45;&gt;AppModule -->
<g id="edge14" class="edge">
<title>MisSitiosComponent&#45;&gt;AppModule</title>
<path fill="none" stroke="black" d="M1784,-122.05C1784,-136.37 1784,-154 1784,-154 1784,-154 1886.33,-154 1886.33,-154"/>
<polygon fill="black" stroke="black" points="1886.33,-157.5 1896.33,-154 1886.33,-150.5 1886.33,-157.5"/>
</g>
<!-- RankingComponent -->
<g id="node15" class="node">
<title>RankingComponent</title>
<polygon fill="#ffffb3" stroke="black" points="1698.27,-122 1569.73,-122 1569.73,-86 1698.27,-86 1698.27,-122"/>
<text text-anchor="middle" x="1634" y="-99.8" font-family="Times,serif" font-size="14.00">RankingComponent</text>
</g>
<!-- RankingComponent&#45;&gt;AppModule -->
<g id="edge15" class="edge">
<title>RankingComponent&#45;&gt;AppModule</title>
<path fill="none" stroke="black" d="M1634,-122.24C1634,-137.57 1634,-157 1634,-157 1634,-157 1886.05,-157 1886.05,-157"/>
<polygon fill="black" stroke="black" points="1886.05,-160.5 1896.05,-157 1886.05,-153.5 1886.05,-160.5"/>
</g>
<!-- RegisterComponent -->
<g id="node16" class="node">
<title>RegisterComponent</title>
<polygon fill="#ffffb3" stroke="black" points="1551.98,-122 1424.02,-122 1424.02,-86 1551.98,-86 1551.98,-122"/>
<text text-anchor="middle" x="1488" y="-99.8" font-family="Times,serif" font-size="14.00">RegisterComponent</text>
</g>
<!-- RegisterComponent&#45;&gt;AppModule -->
<g id="edge16" class="edge">
<title>RegisterComponent&#45;&gt;AppModule</title>
<path fill="none" stroke="black" d="M1488,-122.01C1488,-138.05 1488,-159 1488,-159 1488,-159 1886.07,-159 1886.07,-159"/>
<polygon fill="black" stroke="black" points="1886.07,-162.5 1896.07,-159 1886.07,-155.5 1886.07,-162.5"/>
</g>
<!-- SidebarComponent -->
<g id="node17" class="node">
<title>SidebarComponent</title>
<polygon fill="#ffffb3" stroke="black" points="1406.1,-122 1281.9,-122 1281.9,-86 1406.1,-86 1406.1,-122"/>
<text text-anchor="middle" x="1344" y="-99.8" font-family="Times,serif" font-size="14.00">SidebarComponent</text>
</g>
<!-- SidebarComponent&#45;&gt;AppModule -->
<g id="edge17" class="edge">
<title>SidebarComponent&#45;&gt;AppModule</title>
<path fill="none" stroke="black" d="M1344,-122.03C1344,-139.06 1344,-162 1344,-162 1344,-162 1886.23,-162 1886.23,-162"/>
<polygon fill="black" stroke="black" points="1886.23,-165.5 1896.23,-162 1886.23,-158.5 1886.23,-165.5"/>
</g>
<!-- SitiosComponent -->
<g id="node18" class="node">
<title>SitiosComponent</title>
<polygon fill="#ffffb3" stroke="black" points="1263.73,-122 1150.27,-122 1150.27,-86 1263.73,-86 1263.73,-122"/>
<text text-anchor="middle" x="1207" y="-99.8" font-family="Times,serif" font-size="14.00">SitiosComponent</text>
</g>
<!-- SitiosComponent&#45;&gt;AppModule -->
<g id="edge18" class="edge">
<title>SitiosComponent&#45;&gt;AppModule</title>
<path fill="none" stroke="black" d="M1207,-122C1207,-139.68 1207,-164 1207,-164 1207,-164 1886.34,-164 1886.34,-164"/>
<polygon fill="black" stroke="black" points="1886.34,-167.5 1896.34,-164 1886.34,-160.5 1886.34,-167.5"/>
</g>
<!-- SuperAdminSitiosComponent -->
<g id="node19" class="node">
<title>SuperAdminSitiosComponent</title>
<polygon fill="#ffffb3" stroke="black" points="1132.28,-122 947.72,-122 947.72,-86 1132.28,-86 1132.28,-122"/>
<text text-anchor="middle" x="1040" y="-99.8" font-family="Times,serif" font-size="14.00">SuperAdminSitiosComponent</text>
</g>
<!-- SuperAdminSitiosComponent&#45;&gt;AppModule -->
<g id="edge19" class="edge">
<title>SuperAdminSitiosComponent&#45;&gt;AppModule</title>
<path fill="none" stroke="black" d="M1009.2,-122.11C1009.2,-141.34 1009.2,-169 1009.2,-169 1009.2,-169 1886.29,-169 1886.29,-169"/>
<polygon fill="black" stroke="black" points="1886.29,-172.5 1896.29,-169 1886.29,-165.5 1886.29,-172.5"/>
</g>
<!-- SuperAdminSitiosComponent&#45;&gt;AppModule -->
<g id="edge20" class="edge">
<title>SuperAdminSitiosComponent&#45;&gt;AppModule</title>
<path fill="none" stroke="black" d="M1070.8,-122.22C1070.8,-140.83 1070.8,-167 1070.8,-167 1070.8,-167 1886.17,-167 1886.17,-167"/>
<polygon fill="black" stroke="black" points="1886.17,-170.5 1896.17,-167 1886.17,-163.5 1886.17,-170.5"/>
</g>
<!-- TextComponent -->
<g id="node20" class="node">
<title>TextComponent</title>
<polygon fill="#ffffb3" stroke="black" points="929.49,-122 822.51,-122 822.51,-86 929.49,-86 929.49,-122"/>
<text text-anchor="middle" x="876" y="-99.8" font-family="Times,serif" font-size="14.00">TextComponent</text>
</g>
<!-- TextComponent&#45;&gt;AppModule -->
<g id="edge21" class="edge">
<title>TextComponent&#45;&gt;AppModule</title>
<path fill="none" stroke="black" d="M876,-122.22C876,-142.37 876,-172 876,-172 876,-172 1886.04,-172 1886.04,-172"/>
<polygon fill="black" stroke="black" points="1886.04,-175.5 1896.04,-172 1886.04,-168.5 1886.04,-175.5"/>
</g>
<!-- TextoLienzoComponent -->
<g id="node21" class="node">
<title>TextoLienzoComponent</title>
<polygon fill="#ffffb3" stroke="black" points="804.36,-122 651.64,-122 651.64,-86 804.36,-86 804.36,-122"/>
<text text-anchor="middle" x="728" y="-99.8" font-family="Times,serif" font-size="14.00">TextoLienzoComponent</text>
</g>
<!-- TextoLienzoComponent&#45;&gt;AppModule -->
<g id="edge22" class="edge">
<title>TextoLienzoComponent&#45;&gt;AppModule</title>
<path fill="none" stroke="black" d="M728,-122.28C728,-143.32 728,-175 728,-175 728,-175 1886,-175 1886,-175"/>
<polygon fill="black" stroke="black" points="1886,-178.5 1896,-175 1886,-171.5 1886,-178.5"/>
</g>
<!-- TimelineComponent -->
<g id="node22" class="node">
<title>TimelineComponent</title>
<polygon fill="#ffffb3" stroke="black" points="633.88,-122 502.12,-122 502.12,-86 633.88,-86 633.88,-122"/>
<text text-anchor="middle" x="568" y="-99.8" font-family="Times,serif" font-size="14.00">TimelineComponent</text>
</g>
<!-- TimelineComponent&#45;&gt;AppModule -->
<g id="edge23" class="edge">
<title>TimelineComponent&#45;&gt;AppModule</title>
<path fill="none" stroke="black" d="M568,-122.04C568,-143.66 568,-177 568,-177 568,-177 1886.25,-177 1886.25,-177"/>
<polygon fill="black" stroke="black" points="1886.25,-180.5 1896.25,-177 1886.25,-173.5 1886.25,-180.5"/>
</g>
<!-- TituloLienzoComponent -->
<g id="node23" class="node">
<title>TituloLienzoComponent</title>
<polygon fill="#ffffb3" stroke="black" points="484.43,-122 329.57,-122 329.57,-86 484.43,-86 484.43,-122"/>
<text text-anchor="middle" x="407" y="-99.8" font-family="Times,serif" font-size="14.00">TituloLienzoComponent</text>
</g>
<!-- TituloLienzoComponent&#45;&gt;AppModule -->
<g id="edge24" class="edge">
<title>TituloLienzoComponent&#45;&gt;AppModule</title>
<path fill="none" stroke="black" d="M407,-122.01C407,-144.49 407,-180 407,-180 407,-180 1886.26,-180 1886.26,-180"/>
<polygon fill="black" stroke="black" points="1886.26,-183.5 1896.26,-180 1886.26,-176.5 1886.26,-183.5"/>
</g>
<!-- VideoComponent -->
<g id="node24" class="node">
<title>VideoComponent</title>
<polygon fill="#ffffb3" stroke="black" points="311.55,-122 196.45,-122 196.45,-86 311.55,-86 311.55,-122"/>
<text text-anchor="middle" x="254" y="-99.8" font-family="Times,serif" font-size="14.00">VideoComponent</text>
</g>
<!-- VideoComponent&#45;&gt;AppModule -->
<g id="edge25" class="edge">
<title>VideoComponent&#45;&gt;AppModule</title>
<path fill="none" stroke="black" d="M254,-122.09C254,-145.13 254,-182 254,-182 254,-182 1885.95,-182 1885.95,-182"/>
<polygon fill="black" stroke="black" points="1885.95,-185.5 1895.95,-182 1885.95,-178.5 1885.95,-185.5"/>
</g>
<!-- VideoLienzoComponent -->
<g id="node25" class="node">
<title>VideoLienzoComponent</title>
<polygon fill="#ffffb3" stroke="black" points="178.42,-122 23.58,-122 23.58,-86 178.42,-86 178.42,-122"/>
<text text-anchor="middle" x="101" y="-99.8" font-family="Times,serif" font-size="14.00">VideoLienzoComponent</text>
</g>
<!-- VideoLienzoComponent&#45;&gt;AppModule -->
<g id="edge26" class="edge">
<title>VideoLienzoComponent&#45;&gt;AppModule</title>
<path fill="none" stroke="black" d="M101,-122.38C101,-146.28 101,-185 101,-185 101,-185 1886.18,-185 1886.18,-185"/>
<polygon fill="black" stroke="black" points="1886.18,-188.5 1896.18,-185 1886.18,-181.5 1886.18,-188.5"/>
</g>
<!-- AppComponent  -->
<g id="node28" class="node">
<title>AppComponent </title>
<polygon fill="#80b1d3" stroke="black" points="1992.44,-252 1883.56,-252 1883.56,-216 1992.44,-216 1992.44,-252"/>
<text text-anchor="middle" x="1938" y="-229.8" font-family="Times,serif" font-size="14.00">AppComponent </text>
</g>
<!-- AppModule&#45;&gt;AppComponent  -->
<g id="edge28" class="edge">
<title>AppModule&#45;&gt;AppComponent </title>
<path fill="none" stroke="black" stroke-dasharray="1,5" d="M1938,-187.11C1938,-187.11 1938,-205.99 1938,-205.99"/>
<polygon fill="black" stroke="black" points="1934.5,-205.99 1938,-215.99 1941.5,-205.99 1934.5,-205.99"/>
</g>
<!-- AppRoutingModule -->
<g id="node27" class="node">
<title>AppRoutingModule</title>
<polygon fill="#8dd3c7" stroke="black" points="4066.27,-122 4063.27,-126 4042.27,-126 4039.27,-122 3937.73,-122 3937.73,-86 4066.27,-86 4066.27,-122"/>
<text text-anchor="middle" x="4002" y="-99.8" font-family="Times,serif" font-size="14.00">AppRoutingModule</text>
</g>
<!-- AppRoutingModule&#45;&gt;AppModule -->
<g id="edge27" class="edge">
<title>AppRoutingModule&#45;&gt;AppModule</title>
<path fill="none" stroke="black" d="M4002,-122.38C4002,-146.28 4002,-185 4002,-185 4002,-185 1989.7,-185 1989.7,-185"/>
<polygon fill="black" stroke="black" points="1989.7,-181.5 1979.7,-185 1989.7,-188.5 1989.7,-181.5"/>
</g>
</g>
</svg>
